<svg width="200" height="200" viewBox="0 0 200 200" fill="none" xmlns="http://www.w3.org/2000/svg">
<defs>
<linearGradient id="gradBrain" x1="0%" y1="0%" x2="100%" y2="100%">
<stop offset="0%" style="stop-color:#f5af02;stop-opacity:1" />
<stop offset="100%" style="stop-color:#e53238;stop-opacity:1" />
</linearGradient>
</defs>
<path d="M60 100 C 60 60, 140 60, 140 100 C 140 110, 150 120, 140 140 C 130 160, 70 160, 60 140 C 50 120, 60 110, 60 100 Z" fill="url(#gradBrain)" opacity="0.2" />
<path d="M70 100 C 70 70, 130 70, 130 100" stroke="#e53238" stroke-width="8" stroke-linecap="round" />
<path d="M80 100 C 80 85, 120 85, 120 100" stroke="#f5af02" stroke-width="6" stroke-linecap="round" />
<path d="M70 120 C 70 140, 90 140, 90 120" stroke="#e53238" stroke-width="6" stroke-linecap="round" />
<path d="M110 120 C 110 140, 130 140, 130 120" stroke="#e53238" stroke-width="6" stroke-linecap="round" />
<circle cx="100" cy="100" r="10" fill="#f5af02" />
<line x1="100" y1="110" x2="100" y2="140" stroke="#e53238" stroke-width="4" />
</svg>
